<svg width="24" height="24" viewBox="0 0 33 33" fill="none" xmlns="http://www.w3.org/2000/svg">
<path d="M27.206 5.79778H8.77223C8.42703 5.79878 8.0879 5.88866 7.78752 6.05877C7.48714 6.22889 7.23563 6.4735 7.05723 6.76903L1.34848 16.2828C1.25504 16.4383 1.20567 16.6163 1.20567 16.7978C1.20567 16.9792 1.25504 17.1573 1.34848 17.3128L7.05723 26.8265C7.23563 27.1221 7.48714 27.3667 7.78752 27.5368C8.0879 27.7069 8.42703 27.7968 8.77223 27.7978H27.206C27.7364 27.7978 28.2451 27.5871 28.6202 27.212C28.9953 26.8369 29.206 26.3282 29.206 25.7978V7.79778C29.206 7.26735 28.9953 6.75864 28.6202 6.38357C28.2451 6.0085 27.7364 5.79778 27.206 5.79778ZM27.206 25.7978H8.77223L3.37223 16.7978L8.77223 7.79778H27.206V25.7978ZM13.4985 19.0903L15.7922 16.7978L13.4985 14.5053C13.3108 14.3176 13.2054 14.0631 13.2054 13.7978C13.2054 13.5324 13.3108 13.2779 13.4985 13.0903C13.6861 12.9026 13.9406 12.7972 14.206 12.7972C14.4713 12.7972 14.7258 12.9026 14.9135 13.0903L17.206 15.384L19.4985 13.0903C19.5914 12.9974 19.7017 12.9237 19.8231 12.8734C19.9445 12.8231 20.0746 12.7972 20.206 12.7972C20.3374 12.7972 20.4675 12.8231 20.5889 12.8734C20.7103 12.9237 20.8206 12.9974 20.9135 13.0903C21.0064 13.1832 21.0801 13.2935 21.1304 13.4149C21.1807 13.5363 21.2065 13.6664 21.2065 13.7978C21.2065 13.9292 21.1807 14.0593 21.1304 14.1807C21.0801 14.3021 21.0064 14.4124 20.9135 14.5053L18.6197 16.7978L20.9135 19.0903C21.0064 19.1832 21.0801 19.2935 21.1304 19.4149C21.1807 19.5363 21.2065 19.6664 21.2065 19.7978C21.2065 19.9292 21.1807 20.0593 21.1304 20.1807C21.0801 20.3021 21.0064 20.4124 20.9135 20.5053C20.8206 20.5982 20.7103 20.6719 20.5889 20.7222C20.4675 20.7725 20.3374 20.7983 20.206 20.7983C20.0746 20.7983 19.9445 20.7725 19.8231 20.7222C19.7017 20.6719 19.5914 20.5982 19.4985 20.5053L17.206 18.2115L14.9135 20.5053C14.8206 20.5982 14.7103 20.6719 14.5889 20.7222C14.4675 20.7725 14.3374 20.7983 14.206 20.7983C14.0746 20.7983 13.9445 20.7725 13.8231 20.7222C13.7017 20.6719 13.5914 20.5982 13.4985 20.5053C13.4056 20.4124 13.3319 20.3021 13.2816 20.1807C13.2313 20.0593 13.2054 19.9292 13.2054 19.7978C13.2054 19.6664 13.2313 19.5363 13.2816 19.4149C13.3319 19.2935 13.4056 19.1832 13.4985 19.0903Z" fill="#975DFA"/>
</svg>
