<svg width="32" height="32" viewBox="0 0 33 33" fill="none" xmlns="http://www.w3.org/2000/svg">
<path d="M17.206 10.7978V16.2315L21.721 18.9403C21.9484 19.0769 22.1123 19.2982 22.1765 19.5556C22.2407 19.813 22.2001 20.0854 22.0635 20.3128C21.9269 20.5402 21.7056 20.7041 21.4482 20.7683C21.1908 20.8325 20.9184 20.7919 20.691 20.6553L15.691 17.6553C15.543 17.5664 15.4205 17.4407 15.3356 17.2904C15.2506 17.1401 15.2059 16.9704 15.206 16.7978V10.7978C15.206 10.5326 15.3113 10.2782 15.4989 10.0907C15.6864 9.90314 15.9408 9.79778 16.206 9.79778C16.4712 9.79778 16.7255 9.90314 16.9131 10.0907C17.1006 10.2782 17.206 10.5326 17.206 10.7978ZM16.206 4.79778C14.6285 4.79385 13.0659 5.10282 11.6085 5.70682C10.1512 6.31081 8.8282 7.19782 7.71598 8.31653C6.80723 9.23653 5.99973 10.1215 5.20598 11.0478V8.79778C5.20598 8.53257 5.10062 8.27821 4.91308 8.09068C4.72555 7.90314 4.47119 7.79778 4.20598 7.79778C3.94076 7.79778 3.68641 7.90314 3.49887 8.09068C3.31134 8.27821 3.20598 8.53257 3.20598 8.79778V13.7978C3.20598 14.063 3.31134 14.3174 3.49887 14.5049C3.68641 14.6924 3.94076 14.7978 4.20598 14.7978H9.20598C9.47119 14.7978 9.72555 14.6924 9.91308 14.5049C10.1006 14.3174 10.206 14.063 10.206 13.7978C10.206 13.5326 10.1006 13.2782 9.91308 13.0907C9.72555 12.9031 9.47119 12.7978 9.20598 12.7978H6.33098C7.22473 11.7453 8.11473 10.754 9.12973 9.72653C10.5195 8.33672 12.2881 7.38729 14.2144 6.99688C16.1408 6.60646 18.1394 6.79238 19.9607 7.53139C21.782 8.2704 23.3451 9.52974 24.4547 11.152C25.5644 12.7743 26.1713 14.6877 26.1997 16.653C26.2282 18.6183 25.6768 20.5483 24.6146 22.2021C23.5523 23.8558 22.0263 25.1598 20.2272 25.9512C18.428 26.7426 16.4356 26.9862 14.4988 26.6517C12.562 26.3172 10.7667 25.4193 9.33723 24.0703C9.24169 23.98 9.12931 23.9094 9.00649 23.8626C8.88368 23.8157 8.75284 23.7935 8.62144 23.7972C8.49005 23.8009 8.36067 23.8305 8.2407 23.8842C8.12073 23.9379 8.01251 24.0147 7.92223 24.1103C7.83194 24.2058 7.76136 24.3182 7.71451 24.441C7.66766 24.5638 7.64546 24.6947 7.64917 24.8261C7.65289 24.9575 7.68244 25.0868 7.73616 25.2068C7.78987 25.3268 7.86669 25.435 7.96223 25.5253C9.38654 26.8694 11.1182 27.8444 13.006 28.3654C14.8938 28.8864 16.8804 28.9374 18.7925 28.514C20.7046 28.0906 22.4839 27.2057 23.9754 25.9365C25.4668 24.6672 26.6249 23.0523 27.3486 21.2325C28.0724 19.4128 28.3398 17.4436 28.1274 15.4968C27.9151 13.5499 27.2295 11.6846 26.1305 10.0637C25.0316 8.44275 23.5526 7.11541 21.8226 6.19751C20.0927 5.27961 18.1644 4.79906 16.206 4.79778Z" fill="#EBEBEB"/>
</svg>
